<?xml version="1.0" encoding="iso-8859-1"?>
<svg version="1.1" xmlns="http://www.w3.org/2000/svg" x="0px" y="0px" viewBox="0 0 512.001 512.001">
	<linearGradient id="vipfill" x1="0.5" y1="1" x2="0.5" y2="0" spreadMethod="pad" gradientUnits="objectBoundingBox" gradientTransform="translate(0 0)">
		<stop offset="0%" stop-color="#cb9b51" />
		<stop offset="26%" stop-color="#cb9b51" />
		<stop offset="57.5619%" stop-color="#f6e27a" />
		<stop offset="72.0083%" stop-color="#f6f2c0" />
		<stop offset="100%" stop-color="#f6e27a" />
	</linearGradient>
	<g fill="url(#vipfill)">
		<path d="M418.125,187.733c0.691,0,1.382-0.077,2.082-0.256c37.18-9.293,57.66-33.451,57.66-68.011V59.733     c0-14.114-11.486-25.6-25.6-25.6H435.2c-4.71,0-8.533,3.823-8.533,8.533c0,4.71,3.823,8.533,8.533,8.533h17.067     c4.702,0,8.533,3.831,8.533,8.533v59.733c0,26.718-15.053,44.032-44.74,51.456c-4.565,1.143-7.347,5.777-6.204,10.351     C410.829,185.148,414.302,187.733,418.125,187.733z" />
		<path d="M298.138,460.8h-84.804c-4.71,0-8.533,3.823-8.533,8.533s3.823,8.533,8.533,8.533h84.804c4.71,0,8.533-3.823,8.533-8.533     S302.848,460.8,298.138,460.8z" />
		<path d="M102.144,181.274c1.143-4.574-1.638-9.207-6.204-10.351c-29.687-7.424-44.74-24.738-44.74-51.456V59.733     c0-4.702,3.831-8.533,8.533-8.533H76.8c4.71,0,8.533-3.823,8.533-8.533c0-4.71-3.823-8.533-8.533-8.533H59.733     c-14.114,0-25.6,11.486-25.6,25.6v59.733c0,34.56,20.48,58.718,57.66,68.011c0.7,0.179,1.391,0.256,2.082,0.256     C97.698,187.733,101.171,185.148,102.144,181.274z" />
		<path d="M358.144,433.126c-0.947-3.797-4.361-6.46-8.277-6.46h-188.8c-3.917,0-7.33,2.662-8.277,6.46l-17.067,68.267     c-0.64,2.552-0.068,5.257,1.553,7.322c1.613,2.074,4.096,3.285,6.724,3.285h222.933c2.628,0,5.111-1.212,6.724-3.285     c1.621-2.065,2.193-4.77,1.553-7.322L358.144,433.126z M154.931,494.933l12.8-51.2h175.471l12.8,51.2H154.931z" />
		<path d="M409.6,8.533c0-4.71-3.823-8.533-8.533-8.533H110.933c-4.71,0-8.533,3.823-8.533,8.533v34.133     c0,103.228,17.237,138.88,17.758,139.895c9.719,22.673,23.987,38.306,37.777,53.436c24.107,26.419,46.865,51.371,46.865,113.869     c0,0.23-0.179,23.287-15.633,46.464c-2.611,3.925-1.553,9.225,2.364,11.836c3.917,2.611,9.216,1.553,11.836-2.364     c18.295-27.435,18.5-54.784,18.5-55.936c0-69.111-26.095-97.715-51.32-125.372c-13.431-14.72-26.12-28.629-34.893-49.058     c-0.162-0.333-16.188-34.62-16.188-132.77v-25.6h273.067v25.6c0,98.15-16.026,132.437-16.375,133.171     c-8.585,20.028-21.274,33.937-34.705,48.657c-25.225,27.657-51.319,56.26-51.319,125.372c0,1.152,0.205,28.501,18.5,55.936     c1.647,2.466,4.352,3.797,7.108,3.797c1.621,0,3.268-0.461,4.727-1.434c3.917-2.611,4.975-7.91,2.364-11.836     c-15.309-22.963-15.633-46.259-15.633-46.464c0-62.498,22.758-87.45,46.865-113.869c13.79-15.13,28.058-30.763,37.572-52.983     c0.725-1.468,17.963-37.12,17.963-140.348V8.533z" />
	</g>

</svg>