<svg xmlns="http://www.w3.org/2000/svg" x="0px" y="0px" viewBox="0 0 512 512">

    <linearGradient id="vipfill" x1="0.5" y1="1" x2="0.5" y2="0" spreadMethod="pad" gradientUnits="objectBoundingBox" gradientTransform="translate(0 0)">
        <stop offset="0%" stop-color="#fcf9ff" />
        <stop offset="26%" stop-color="#fd1d1d" />

        <stop offset="100%" stop-color="#fcb045" />
    </linearGradient>
    <g fill="url(#vipfill)">

        <path d="M437.02,74.98C388.667,26.628,324.38,0,256,0S123.333,26.628,74.98,74.98S0,187.62,0,256s26.628,132.667,74.98,181.02   S187.62,512,256,512s132.667-26.628,181.02-74.98S512,324.38,512,256S485.372,123.333,437.02,74.98z M467.829,369.062   l-41.73-24.093c12.809-24.39,20.521-51.852,21.721-80.969h48.033C494.643,301.221,485.006,336.979,467.829,369.062z M248,447.821   v48.033c-37.221-1.211-72.979-10.847-105.062-28.024l24.093-41.73C191.42,438.908,218.882,446.621,248,447.821z M264,447.821   c29.118-1.2,56.58-8.913,80.969-21.721l24.093,41.73c-32.083,17.177-67.841,26.813-105.062,28.024V447.821z M256,432   c-97.047,0-176-78.953-176-176S158.953,80,256,80s176,78.953,176,176S353.047,432,256,432z M16.146,264h48.033   c1.2,29.118,8.913,56.58,21.721,80.969l-41.73,24.093C26.994,336.979,17.357,301.221,16.146,264z M44.171,142.938l41.73,24.093   C73.092,191.42,65.379,218.882,64.179,248H16.146C17.357,210.779,26.994,175.021,44.171,142.938z M264,64.179V16.146   c37.221,1.211,72.979,10.847,105.062,28.024L344.969,85.9C320.58,73.092,293.118,65.379,264,64.179z M248,64.179   c-29.118,1.2-56.58,8.913-80.969,21.721l-24.093-41.73C175.021,26.994,210.779,17.357,248,16.146V64.179z M447.821,248   c-1.2-29.118-8.913-56.58-21.721-80.969l41.73-24.093c17.177,32.083,26.813,67.841,28.025,105.062H447.821z M459.796,129.101   l-41.714,24.083c-15.168-23.827-35.44-44.098-59.266-59.266l24.083-41.714c15.337,9.591,29.699,20.983,42.806,34.09   C438.813,99.401,450.205,113.764,459.796,129.101z M86.294,86.294c13.107-13.107,27.47-24.5,42.806-34.09l24.083,41.714   c-23.827,15.168-44.099,35.44-59.266,59.266l-41.714-24.083C61.795,113.764,73.187,99.401,86.294,86.294z M52.204,382.899   l41.714-24.083c15.168,23.827,35.44,44.098,59.266,59.266l-24.083,41.714c-15.337-9.591-29.699-20.983-42.806-34.09   C73.187,412.599,61.795,398.236,52.204,382.899z M425.706,425.706c-13.107,13.107-27.47,24.5-42.806,34.09l-24.083-41.714   c23.827-15.168,44.098-35.44,59.266-59.266l41.714,24.083C450.205,398.236,438.813,412.599,425.706,425.706z" />
        <path d="M362.101,158.641c1.578,1.719,3.733,2.59,5.895,2.59c1.933,0,3.872-0.697,5.408-2.107   c3.255-2.988,3.471-8.049,0.483-11.303c-3.086-3.361-6.354-6.629-9.714-9.713c-3.254-2.987-8.315-2.772-11.303,0.484   c-2.988,3.255-2.771,8.315,0.484,11.303C356.379,152.671,359.322,155.614,362.101,158.641z" />
        <path d="M112,256c0-79.402,64.598-144,144-144c23.799,0,47.377,5.925,68.187,17.134c3.89,2.094,8.742,0.641,10.837-3.25   c2.095-3.89,0.64-8.742-3.25-10.837C308.641,102.586,282.439,96,256,96c-88.224,0-160,71.776-160,160   c0,36.744,12.766,72.633,35.947,101.056c1.582,1.939,3.883,2.944,6.205,2.944c1.777,0,3.566-0.59,5.051-1.801   c3.424-2.792,3.936-7.832,1.144-11.256C123.487,321.368,112,289.07,112,256z" />
        <path d="M396.937,180.196c-2.096-3.89-6.949-5.343-10.838-3.247s-5.343,6.948-3.247,10.838C394.07,208.602,400,232.19,400,256   c0,79.402-64.598,144-144,144c-33.071,0-65.37-11.488-90.946-32.349c-3.423-2.792-8.463-2.28-11.256,1.144   c-2.792,3.424-2.281,8.463,1.144,11.256C183.365,403.233,219.254,416,256,416c88.224,0,160-71.776,160-160   C416,229.549,409.408,203.336,396.937,180.196z" />
        <path d="M256,192c14.537,0,27.995,6.931,31.309,16.132C287.768,209.399,288,210.7,288,212c0,13.234,10.766,24,24,24   s24-10.766,24-24c0-6.854-1.189-13.633-3.536-20.149c-7.872-21.851-27.438-38.258-52.966-44.747   C277.231,136.21,267.556,128,256,128c-11.533,0-21.191,8.177-23.484,19.038c-14.871,3.895-28.288,11.494-38.259,21.755   C182.484,180.911,176,196.255,176,212c0,37.495,35.888,68,80,68c15.105,0,32,8.553,32,20s-16.895,20-32,20s-32-8.553-32-20   c0-13.234-10.766-24-24-24s-24,10.766-24,24c0,15.745,6.484,31.089,18.257,43.207c9.971,10.262,23.388,17.86,38.259,21.755   C234.809,375.823,244.467,384,256,384s21.191-8.177,23.484-19.038c14.871-3.895,28.288-11.494,38.259-21.755   C329.516,331.089,336,315.745,336,300c0-37.495-35.888-68-80-68c-15.105,0-32-8.553-32-20S240.895,192,256,192z M256,248   c35.29,0,64,23.327,64,52c0,23.865-20.815,45.144-49.494,50.596c-3.774,0.718-6.506,4.017-6.506,7.859V360c0,4.411-3.589,8-8,8   s-8-3.589-8-8v-1.545c0-3.842-2.731-7.142-6.506-7.859C212.815,345.144,192,323.865,192,300c0-4.411,3.589-8,8-8s8,3.589,8,8   c0,19.851,21.533,36,48,36s48-16.149,48-36s-21.533-36-48-36c-35.29,0-64-23.327-64-52c0-23.865,20.815-45.144,49.494-50.596   c3.774-0.718,6.506-4.017,6.506-7.859V152c0-4.411,3.589-8,8-8s8,3.589,8,8v1.642c0,3.853,2.746,7.158,6.533,7.864   c22.477,4.192,40.439,17.897,46.877,35.767C319.129,202.044,320,206.999,320,212c0,4.411-3.589,8-8,8s-8-3.589-8-8   c0-3.162-0.554-6.294-1.641-9.301C296.696,186.979,277.633,176,256,176c-26.467,0-48,16.149-48,36S229.533,248,256,248z" />
    </g>
</svg>