<svg xmlns="http://www.w3.org/2000/svg" x="0px" y="0px" viewBox="0 0 512 512">

    <linearGradient id="vipfill" x1="0.5" y1="1" x2="0.5" y2="0" spreadMethod="pad" gradientUnits="objectBoundingBox" gradientTransform="translate(0 0)">
        <stop offset="0%" stop-color="#fcf9ff" />
        <stop offset="26%" stop-color="#1dfd6d" />

        <stop offset="100%" stop-color="#45dbfc" />
    </linearGradient>
    <g fill="url(#vipfill)">
        <g>
            <path d="M256,512c-68.38,0-132.667-26.628-181.02-74.98S0,324.38,0,256S26.628,123.333,74.98,74.98S187.62,0,256,0
                s132.667,26.628,181.02,74.98S512,187.62,512,256s-26.628,132.667-74.98,181.02S324.38,512,256,512z M256,16
                c-64.106,0-124.376,24.964-169.706,70.294C40.964,131.624,16,191.894,16,256s24.964,124.376,70.294,169.706
                C131.624,471.036,191.894,496,256,496s124.376-24.964,169.706-70.294C471.036,380.376,496,320.106,496,256
                s-24.964-124.376-70.294-169.706C380.376,40.964,320.106,16,256,16z" />
        </g>
        <g>
            <path d="M256,448c-105.869,0-192-86.131-192-192S150.131,64,256,64s192,86.131,192,192S361.869,448,256,448z M256,80
                c-97.047,0-176,78.953-176,176s78.953,176,176,176s176-78.953,176-176S353.047,80,256,80z" />
        </g>
        <g>
            <path d="M367.996,161.23c-2.162,0-4.317-0.871-5.895-2.59c-2.779-3.027-5.722-5.97-8.747-8.747
                c-3.255-2.988-3.472-8.048-0.484-11.303c2.988-3.255,8.049-3.471,11.303-0.484c3.36,3.084,6.628,6.352,9.714,9.713
                c2.988,3.254,2.772,8.315-0.483,11.303C371.868,160.534,369.929,161.23,367.996,161.23z" />
        </g>
        <g>
            <path d="M138.151,360c-2.321,0-4.623-1.005-6.205-2.944C108.766,328.633,96,292.744,96,256c0-88.224,71.776-160,160-160
                c26.439,0,52.641,6.586,75.774,19.047c3.89,2.096,5.345,6.947,3.25,10.837c-2.096,3.891-6.948,5.344-10.837,3.25
                C303.377,117.925,279.799,112,256,112c-79.402,0-144,64.598-144,144c0,33.07,11.487,65.368,32.346,90.943
                c2.792,3.424,2.28,8.463-1.144,11.256C141.718,359.41,139.929,360,138.151,360z" />
        </g>
        <g>
            <path d="M256,416c-36.746,0-72.635-12.767-101.059-35.949c-3.424-2.793-3.936-7.832-1.144-11.256
                c2.793-3.424,7.833-3.936,11.256-1.144C190.63,388.512,222.929,400,256,400c79.402,0,144-64.598,144-144
                c0-23.81-5.93-47.398-17.148-68.213c-2.096-3.89-0.642-8.742,3.247-10.838c3.89-2.096,8.742-0.643,10.838,3.247
                C409.408,203.336,416,229.549,416,256C416,344.224,344.224,416,256,416z" />
        </g>
        <g>
            <g>
                <path d="M72,264H8c-4.418,0-8-3.582-8-8s3.582-8,8-8h64c4.418,0,8,3.582,8,8S76.418,264,72,264z" />
            </g>
            <g>
                <path d="M504,264h-64c-4.418,0-8-3.582-8-8s3.582-8,8-8h64c4.418,0,8,3.582,8,8S508.418,264,504,264z" />
            </g>
            <g>
                <path d="M256,512c-4.418,0-8-3.582-8-8v-64c0-4.418,3.582-8,8-8s8,3.582,8,8v64C264,508.418,260.418,512,256,512z" />
            </g>
            <g>
                <path d="M256,80c-4.418,0-8-3.582-8-8V8c0-4.418,3.582-8,8-8s8,3.582,8,8v64C264,76.418,260.418,80,256,80z" />
            </g>
        </g>
        <g>
            <g>
                <path d="M131.993,478.776c-1.357,0-2.733-0.346-3.993-1.073c-3.826-2.209-5.137-7.102-2.928-10.928l32-55.426
                    c2.209-3.827,7.102-5.138,10.928-2.928c3.826,2.209,5.137,7.102,2.928,10.928l-32,55.426
                    C137.446,477.341,134.757,478.776,131.993,478.776z" />
            </g>
            <g>
                <path d="M347.993,104.653c-1.357,0-2.733-0.346-3.993-1.073c-3.826-2.209-5.137-7.102-2.928-10.928l32-55.426
                    c2.209-3.827,7.103-5.138,10.928-2.928c3.826,2.209,5.137,7.102,2.928,10.928l-32,55.426
                    C353.446,103.218,350.757,104.653,347.993,104.653z" />
            </g>
            <g>
                <path d="M470.767,388.001c-1.357,0-2.733-0.346-3.993-1.073l-55.426-32c-3.826-2.209-5.137-7.102-2.928-10.928
                    c2.209-3.827,7.102-5.138,10.928-2.928l55.426,32c3.826,2.209,5.137,7.102,2.928,10.928
                    C476.221,386.566,473.532,388.001,470.767,388.001z" />
            </g>
            <g>
                <path d="M96.644,172.001c-1.357,0-2.733-0.346-3.993-1.073l-55.426-32c-3.826-2.209-5.137-7.102-2.928-10.928
                    c2.209-3.827,7.102-5.138,10.928-2.928l55.426,32c3.826,2.209,5.137,7.102,2.928,10.928
                    C102.098,170.566,99.409,172.001,96.644,172.001z" />
            </g>
        </g>
        <g>
            <g>
                <path d="M380.007,478.776c-2.765,0-5.454-1.435-6.936-4.001l-32-55.426c-2.209-3.826-0.898-8.719,2.928-10.928
                    c3.826-2.208,8.719-0.898,10.928,2.928l32,55.426c2.209,3.826,0.898,8.719-2.928,10.928
                    C382.74,478.43,381.365,478.776,380.007,478.776z" />
            </g>
            <g>
                <path d="M164.007,104.653c-2.765,0-5.454-1.435-6.936-4.001l-32-55.426c-2.209-3.826-0.898-8.719,2.928-10.928
                    c3.826-2.208,8.719-0.898,10.928,2.928l32,55.426c2.209,3.826,0.898,8.719-2.928,10.928
                    C166.74,104.307,165.365,104.653,164.007,104.653z" />
            </g>
            <g>
                <path d="M41.233,388.001c-2.765,0-5.454-1.435-6.936-4.001c-2.209-3.826-0.898-8.719,2.928-10.928l55.426-32
                    c3.826-2.207,8.719-0.898,10.928,2.928c2.209,3.826,0.898,8.719-2.928,10.928l-55.426,32
                    C43.966,387.655,42.59,388.001,41.233,388.001z" />
            </g>
            <g>
                <path d="M415.356,172.001c-2.765,0-5.454-1.435-6.936-4.001c-2.209-3.826-0.898-8.719,2.928-10.928l55.426-32
                    c3.826-2.208,8.719-0.898,10.928,2.928c2.209,3.826,0.898,8.719-2.928,10.928l-55.426,32
                    C418.089,171.655,416.713,172.001,415.356,172.001z" />
            </g>
        </g>
        <g>
            <path d="M294.519,368h-76.422c-3.184,0-6.064-1.888-7.335-4.807c-1.271-2.919-0.69-6.314,1.479-8.644
                c7.203-7.738,13.262-16.539,17.963-26.023c-5.618,1.7-11.505,2.571-17.542,2.571c-33.449,0-60.662-27.313-60.662-60.884
                c0-67.655,95.999-122.855,100.085-125.172c2.447-1.388,5.443-1.388,7.891,0c4.086,2.317,100.085,57.517,100.085,125.172
                c0,33.572-27.213,60.884-60.662,60.884c-5.796,0-11.466-0.81-16.897-2.391c4.69,9.417,10.719,18.159,17.873,25.844
                c2.169,2.33,2.75,5.725,1.479,8.644C300.583,366.112,297.703,368,294.519,368z M234.828,352h42.962
                c-7.971-11.388-14.068-24.111-17.912-37.493c-0.953-3.317,0.33-6.871,3.181-8.816c2.853-1.945,6.628-1.842,9.369,0.254
                c7.827,5.987,17.154,9.152,26.972,9.152c24.627,0,44.662-20.135,44.662-44.884c0-29.996-24.669-58.468-45.364-77.071
                c-17.461-15.697-35.032-27.123-42.665-31.819c-7.675,4.727-25.396,16.256-42.883,32.012C192.553,211.891,168,240.293,168,270.212
                c0,24.75,20.035,44.884,44.662,44.884c10.105,0,19.641-3.32,27.574-9.601c2.72-2.153,6.518-2.309,9.403-0.384
                c2.887,1.924,4.204,5.49,3.262,8.828C249.066,327.534,242.913,340.45,234.828,352z" />
        </g>
    </g>
</svg>