<?xml version="1.0" encoding="iso-8859-1"?>
<svg version="1.1" xmlns="http://www.w3.org/2000/svg" x="0px" y="0px" viewBox="0 0 512.001 512.001">
    <linearGradient id="vipfill" x1="0.5" y1="1" x2="0.5" y2="0" spreadMethod="pad" gradientUnits="objectBoundingBox" gradientTransform="translate(0 0)">
        <stop offset="0%" stop-color="#cb9b51" />
        <stop offset="26%" stop-color="#cb9b51" />
        <stop offset="57.5619%" stop-color="#f6e27a" />
        <stop offset="72.0083%" stop-color="#f6f2c0" />
        <stop offset="100%" stop-color="#f6e27a" />
    </linearGradient>
    <linearGradient id="leagueicongrad" gradientTransform="rotate(90)">
        <stop offset="0%" stop-color="#cb9b51" />
        <stop offset="26%" stop-color="#ffffff" />
        <stop offset="57.5619%" stop-color="#f6e27a" />
        <stop offset="72.0083%" stop-color="#f6f2c0" />
        <stop offset="100%" stop-color="#f6e27a" />
    </linearGradient>
    <g fill="url(#vipfill)">
        <path d="M119.467,341.333c0-4.71-3.823-8.533-8.533-8.533s-8.533,3.823-8.533,8.533c-4.71,0-8.533,3.823-8.533,8.533     s3.823,8.533,8.533,8.533c0,4.71,3.823,8.533,8.533,8.533s8.533-3.823,8.533-8.533c4.71,0,8.533-3.823,8.533-8.533     S124.177,341.333,119.467,341.333z" />
        <path d="M42.667,307.2h-8.533v-8.533c0-4.71-3.823-8.533-8.533-8.533c-4.71,0-8.533,3.823-8.533,8.533v8.533H8.533     c-4.71,0-8.533,3.823-8.533,8.533s3.823,8.533,8.533,8.533h8.533v8.533c0,4.71,3.823,8.533,8.533,8.533     c4.71,0,8.533-3.823,8.533-8.533v-8.533h8.533c4.71,0,8.533-3.823,8.533-8.533S47.377,307.2,42.667,307.2z" />
        <path d="M452.267,392.533h-8.533V384c0-4.71-3.823-8.533-8.533-8.533s-8.533,3.823-8.533,8.533v8.533h-8.533     c-4.71,0-8.533,3.823-8.533,8.533s3.823,8.533,8.533,8.533h8.533v8.533c0,4.71,3.823,8.533,8.533,8.533s8.533-3.823,8.533-8.533     V409.6h8.533c4.71,0,8.533-3.823,8.533-8.533S456.977,392.533,452.267,392.533z" />
        <path d="M503.467,221.867H486.4V204.8c0-4.71-3.823-8.533-8.533-8.533s-8.533,3.823-8.533,8.533v17.067h-17.067     c-4.71,0-8.533,3.823-8.533,8.533s3.823,8.533,8.533,8.533h17.067V256c0,4.71,3.823,8.533,8.533,8.533S486.4,260.71,486.4,256     v-17.067h17.067c4.71,0,8.533-3.823,8.533-8.533S508.177,221.867,503.467,221.867z" />
    </g>
    <text fill="url(#leagueicongrad)" x="190" y="190" style="font-size: 180px;">
		G
	  </text>
</svg>