<?xml version="1.0" encoding="iso-8859-1"?>
<svg version="1.1" xmlns="http://www.w3.org/2000/svg" x="0px" y="0px" viewBox="0 0 512.001 512.001">
	<linearGradient id="vipfill" x1="0.5" y1="1" x2="0.5" y2="0" spreadMethod="pad" gradientUnits="objectBoundingBox" gradientTransform="translate(0 0)">
		<stop offset="0%" stop-color="#cb9b51" />
		<stop offset="26%" stop-color="#cb9b51" />
		<stop offset="57.5619%" stop-color="#f6e27a" />
		<stop offset="72.0083%" stop-color="#f6f2c0" />
		<stop offset="100%" stop-color="#f6e27a" />
	</linearGradient>
	<g fill="url(#vipfill)">
		<path xmlns="http://www.w3.org/2000/svg" d="M503.65,339.957c0-11.617-7.949-21.328-18.667-24.215c1.847-1.553,3.626-3.215,5.313-4.986    c23.435-24.685,21.773-61.96,21.697-63.538c0.008-40.775-29.411-64.285-46.953-74.626c-10.727-6.337-24.752-9.652-37.485-8.855    c-0.554,0.034-1.041,0.092-1.578,0.126c3.366,5.053,6.354,10.383,8.813,16.023c1.88,4.893,17.769,48.783-2.56,81.735    l-35.437,53.156h-20.178l41.648-62.464c16.065-26.053,1.477-64.789,0.856-66.417c-14.294-32.684-48.472-54.406-87.216-55.724    c-3.139-0.109-4.935-0.025-4.935-0.017h-0.017c-11.91,0-22.31,1.779-31.35,4.373L260.24,77.376V54.58h16.787    c4.633,0,8.393-3.76,8.393-8.393s-3.76-8.393-8.393-8.393H260.24V21.006c0-4.633-3.76-8.393-8.393-8.393    c-4.633,0-8.393,3.76-8.393,8.393v16.787h-16.787c-4.633,0-8.393,3.76-8.393,8.393s3.76,8.393,8.393,8.393h16.787v22.797    l-34.245,55.346c-7.269-1.553-15.259-2.568-24.114-2.568h-0.017c0-0.008-1.796-0.092-4.927,0.017    c-38.753,1.318-72.931,23.04-87.225,55.724c-0.621,1.628-15.209,40.364,0.856,66.417l41.648,62.464h-20.178l-35.437-53.156    c-20.329-32.953-4.44-76.842-2.56-81.735c2.459-5.64,5.456-10.97,8.813-16.023c-0.537-0.034-1.024-0.092-1.57-0.126    c-12.741-0.797-26.758,2.518-37.494,8.855c-17.542,10.341-46.961,33.851-46.953,74.626c-0.076,1.578-1.737,38.853,21.697,63.538    c1.36,1.427,2.803,2.736,4.264,4.02h-0.789c-13.883,0-25.18,11.298-25.18,25.18c0,13.883,11.298,25.18,25.18,25.18v83.934    c-13.883,0-25.18,11.298-25.18,25.18s11.298,25.18,25.18,25.18H478.47c13.883,0,25.18-11.298,25.18-25.18    s-11.298-25.18-25.18-25.18v-83.934C492.352,365.137,503.65,353.84,503.65,339.957z M251.847,95.716l25.978,41.984    c-7.05,2.745-12.825,5.892-17.584,8.897v5.833v14.907v147.439h-16.787V167.337v-20.74v-0.109    c-4.726-2.988-10.601-6.11-17.559-8.821L251.847,95.716z M486.863,474.252c0,4.625-3.769,8.393-8.393,8.393H25.224    c-4.625,0-8.393-3.769-8.393-8.393c0-4.625,3.769-8.393,8.393-8.393H478.47C483.094,465.858,486.863,469.627,486.863,474.252z     M58.797,407.104c0-4.633,3.76-8.393,8.393-8.393h16.787c4.633,0,8.393,3.76,8.393,8.393s-3.76,8.393-8.393,8.393H67.191    C62.558,415.498,58.797,411.738,58.797,407.104z M109.158,407.104c0-4.633,3.76-8.393,8.393-8.393s8.393,3.76,8.393,8.393    s-3.76,8.393-8.393,8.393S109.158,411.738,109.158,407.104z M142.732,407.104c0-4.633,3.76-8.393,8.393-8.393h67.148    c4.633,0,8.393,3.76,8.393,8.393s-3.76,8.393-8.393,8.393h-67.148C146.492,415.498,142.732,411.738,142.732,407.104z     M243.453,407.104c0-4.633,3.76-8.393,8.393-8.393c4.633,0,8.393,3.76,8.393,8.393s-3.76,8.393-8.393,8.393    C247.213,415.498,243.453,411.738,243.453,407.104z M277.027,407.104c0-4.633,3.76-8.393,8.393-8.393h67.148    c4.633,0,8.393,3.76,8.393,8.393s-3.76,8.393-8.393,8.393H285.42C280.787,415.498,277.027,411.738,277.027,407.104z     M377.748,407.104c0-4.633,3.76-8.393,8.393-8.393c4.633,0,8.393,3.76,8.393,8.393s-3.76,8.393-8.393,8.393    C381.509,415.498,377.748,411.738,377.748,407.104z M411.322,407.104c0-4.633,3.76-8.393,8.393-8.393h16.787    c4.633,0,8.393,3.76,8.393,8.393s-3.76,8.393-8.393,8.393h-16.787C415.082,415.498,411.322,411.738,411.322,407.104z     M25.224,348.35c-4.625,0-8.393-3.769-8.393-8.393c0-4.625,3.769-8.393,8.393-8.393h49.74c0.21,0,0.411,0.025,0.621,0.025h50.873    l-0.017-0.025h20.178l0.017,0.025h105.17h8.435h105.17l0.017-0.025h20.178l-0.017,0.025h50.873c0.21,0,0.411-0.025,0.621-0.025    h41.388c4.625,0,8.393,3.769,8.393,8.393c0,4.625-3.769,8.393-8.393,8.393H25.224z" />
	</g>

</svg>