<svg version="1.1" xmlns="http://www.w3.org/2000/svg" x="0px" y="0px" viewBox="0 0 510.738 510.738">
    <linearGradient id="vipfill22" x1="0.5" y1="1" x2="0.5" y2="0" spreadMethod="pad" gradientUnits="objectBoundingBox">
        <stop offset="0%" stop-color="#cb9b51" />

        <stop offset="100%" stop-color="#f6e27a" />
    </linearGradient>
    <g fill="url(#vipfill22)">
        <path d="M423.285,259.422c-0.272-0.895-0.666-1.684-1.139-2.383c5.29-16.467,8.157-34.019,8.157-52.243
        c0-94.253-76.414-170.667-170.667-170.667S88.969,110.543,88.969,204.796c0,18.427,2.932,36.167,8.336,52.793
        c-0.322,0.563-0.61,1.161-0.814,1.834l-57.566,189.73c-5.705,18.781,16.041,33.642,32.065,22.475l55.072-38.356
        c8.995-6.265,21.719-2.663,25.718,7.122l23.057,56.439c7.947,19.453,36.547,18.202,42.647-1.911l36.284-119.571
        c1.949,0.066,3.904,0.111,5.869,0.111c2.132,0,4.252-0.053,6.365-0.13l36.282,119.59c6.114,20.111,34.687,21.361,42.645,1.915
        l23.067-56.443c3.999-9.788,16.717-13.388,25.72-7.122l55.072,38.356c16.023,11.165,37.769-3.695,32.063-22.479L423.285,259.422z
         M201.152,489.967c-1.427,4.705-8.633,5.02-10.516,0.411l-23.057-56.44c-8.17-19.994-33.383-27.131-51.271-14.672l-55.074,38.357
        c-3.005,2.094-6.878-0.552-5.979-3.514l51.365-169.291c6.617,11.266,14.599,21.795,23.758,31.419
        c26.517,30.728,63.807,51.89,106.001,57.64L201.152,489.967z M249.705,358.068c-0.48-0.122-0.973-0.217-1.488-0.255
        c-39.731-2.932-76.149-21.062-102.513-50.268c-0.838-0.84-1.662-1.688-2.477-2.542c-23.176-26.899-37.191-61.915-37.191-100.207
        c0-84.827,68.773-153.6,153.6-153.6s153.6,68.773,153.6,153.6c0,40.982-16.052,78.213-42.208,105.755
        c-0.363,0.342-0.719,0.691-1.085,1.031c-26.212,26.898-60.84,43.327-98.417,46.207c-0.496,0.038-0.97,0.13-1.434,0.246
        c-3.456,0.232-6.941,0.362-10.456,0.362C256.299,358.396,252.99,358.277,249.705,358.068z M458.543,457.625l-55.076-38.359
        c-17.896-12.457-43.101-5.322-51.27,14.672l-23.065,56.439c-1.887,4.612-9.086,4.297-10.518-0.414l-35.239-116.152
        c39.132-5.446,74.02-24.15,99.967-51.443c11.63-11.017,21.716-23.669,29.821-37.523l51.356,169.263
        C465.419,457.071,461.546,459.718,458.543,457.625z" />


    </g>


</svg>