<svg version="1.1" xmlns="http://www.w3.org/2000/svg" x="0px" y="0px" viewBox="0 0 510.738 510.738">
    <linearGradient id="vipfill22" x1="0.5" y1="1" x2="0.5" y2="0" spreadMethod="pad" gradientUnits="objectBoundingBox">
        <stop offset="0%" stop-color="#cb9b51" />

        <stop offset="100%" stop-color="#f6e27a" />
    </linearGradient>
    <g fill="url(#vipfill22)">

        <path d="M46.302,76.8c0,11.378,17.067,11.378,17.067,0c0-14.154,11.446-25.6,25.6-25.6c11.378,0,11.378-17.067,0-17.067
        c-14.154,0-25.6-11.446-25.6-25.6c0-11.378-17.067-11.378-17.067,0c0,14.154-11.446,25.6-25.6,25.6
        c-11.378,0-11.378,17.067,0,17.067C34.857,51.2,46.302,62.646,46.302,76.8z M54.836,34.151c2.423,3.224,5.292,6.093,8.516,8.516
        c-3.224,2.423-6.093,5.292-8.516,8.516c-2.423-3.224-5.292-6.093-8.516-8.516C49.544,40.244,52.413,37.375,54.836,34.151z" />
        <path d="M490.036,136.533h-8.533V128c0-4.713-3.82-8.533-8.533-8.533s-8.533,3.82-8.533,8.533v8.533h-8.533
        c-4.713,0-8.533,3.82-8.533,8.533s3.82,8.533,8.533,8.533h8.533v8.533c0,4.713,3.821,8.533,8.533,8.533s8.533-3.82,8.533-8.533
        V153.6h8.533c4.713,0,8.533-3.821,8.533-8.533S494.749,136.533,490.036,136.533z" />
        <path d="M29.236,213.333c-4.719,0-8.533,3.823-8.533,8.533c0,4.71,3.814,8.533,8.533,8.533s8.533-3.823,8.533-8.533
        C37.769,217.156,33.955,213.333,29.236,213.333z" />
        <path d="M387.636,204.796c0-70.684-57.316-128-128-128s-128,57.316-128,128c0,70.69,57.313,128,128,128
        S387.636,275.485,387.636,204.796z M148.702,204.796c0-61.258,49.675-110.933,110.933-110.933s110.933,49.675,110.933,110.933
        c0,61.264-49.672,110.933-110.933,110.933S148.702,266.06,148.702,204.796z" />

    </g>


</svg>