<?xml version="1.0" encoding="utf-8"?>
<!-- Generator: Adobe Illustrator 26.4.1, SVG Export Plug-In . SVG Version: 6.00 Build 0)  -->
<svg version="1.1" id="Warstwa_3" xmlns="http://www.w3.org/2000/svg" xmlns:xlink="http://www.w3.org/1999/xlink" x="0px" y="0px"
	 viewBox="0 0 430 430" style="enable-background:new 0 0 430 430;" xml:space="preserve">
<style type="text/css">
	.st0{fill:#ffc738;}
	.st1{opacity:0.1;fill:#545454;}
	.st2{fill:#f24c00;}
	.st3{fill:#f28ba8;}
	.st4{fill:#4bb3fd;}
</style>
<path class="st0" d="M260.95,298.55c-7.19,7.19-63.55,5.4-99.42-30.47s-37.66-92.24-30.47-99.42s42.09,16.07,77.96,51.94
	S268.14,291.37,260.95,298.55z"/>
<path class="st1" d="M260.95,298.55c-7.19,7.19-63.55,5.4-99.42-30.47s-37.66-92.24-30.47-99.42s42.09,16.07,77.96,51.94
	S268.14,291.37,260.95,298.55z"/>
<path class="st2" d="M323.19,308.93c0,1.93-1.57,3.5-3.5,3.5s-3.5-1.57-3.5-3.5c0-29.76-17.56-43.94-32.3-50.59
	c-14.6-6.59-31.42-8.25-46.51-6.48c-14.39,1.67-27.21,6.45-35.02,13.02c-1.74-1.54-3.49-3.11-5.25-4.73
	c8.57-7.55,21.11-12.54,34.93-14.7c18.11-2.86,38.39-0.87,54.74,6.51C310.26,262.56,323.19,282.79,323.19,308.93z"/>
<path class="st2" d="M183.33,196.86c-0.79,14.89-4.22,28.28-10,38.33c-0.17,0.31-0.39,0.58-0.63,0.8c-1.66-1.77-3.28-3.53-4.87-5.28
	c5.42-10.01,8.44-24.05,8.58-39.56c0.23-24.42-6.65-52.5-22.33-74.23c-13.31-18.45-37.81-38.7-78.85-30.34
	c-1.9,0.38-3.75-0.84-4.13-2.73c-0.39-1.9,0.83-3.74,2.73-4.13c34.89-7.11,65.4,4.65,85.93,33.11
	c12.48,17.3,20.67,39.91,23.06,63.68C183.52,183.48,183.68,190.32,183.33,196.86z"/>
<path class="st3" d="M250.26,200.38c-0.83,0-1.66-0.29-2.33-0.89c-1.44-1.29-1.56-3.5-0.28-4.94c6.2-6.93,14.71-5.26,22.21-3.79
	c7.53,1.48,12.34,2.11,15.64-1.59s2.14-8.4-0.17-15.72c-2.3-7.29-4.91-15.56,1.29-22.49c6.2-6.93,14.71-5.26,22.21-3.79
	c7.52,1.48,12.33,2.11,15.64-1.58c1.29-1.44,3.5-1.56,4.94-0.28c1.44,1.29,1.56,3.5,0.28,4.94c-6.2,6.93-14.7,5.26-22.21,3.79
	c-7.53-1.48-12.34-2.11-15.64,1.58c-3.3,3.7-2.14,8.41,0.17,15.72c2.3,7.29,4.91,15.56-1.29,22.49c-6.2,6.93-14.7,5.26-22.21,3.79
	c-7.53-1.48-12.34-2.11-15.64,1.59C252.18,199.98,251.22,200.38,250.26,200.38z"/>
<path class="st3" d="M223.97,159.71c-1.88,0-3.43-1.49-3.5-3.39c-0.3-9.3,7.01-13.96,13.45-18.07c6.47-4.13,10.38-6.99,10.22-11.95
	s-4.25-7.56-10.97-11.26c-6.7-3.69-14.29-7.87-14.59-17.16c-0.3-9.3,7.01-13.96,13.45-18.07c6.47-4.13,10.38-6.99,10.22-11.94
	c-0.06-1.93,1.45-3.55,3.38-3.61c1.93-0.05,3.55,1.45,3.61,3.38c0.3,9.3-7,13.96-13.45,18.07c-6.47,4.12-10.38,6.99-10.22,11.94
	c0.16,4.96,4.25,7.56,10.97,11.26c6.7,3.69,14.29,7.87,14.59,17.17s-7.01,13.96-13.45,18.07c-6.47,4.13-10.38,6.99-10.22,11.94
	c0.06,1.93-1.45,3.55-3.38,3.61C224.04,159.7,224.01,159.71,223.97,159.71z"/>
<path class="st0" d="M178.18,73.47c-0.61,0-1.22-0.16-1.79-0.49c-1.66-0.99-2.21-3.14-1.22-4.8l7.28-12.24
	c0.99-1.66,3.13-2.21,4.8-1.22c1.66,0.99,2.21,3.14,1.22,4.8l-7.28,12.24C180.54,72.86,179.38,73.47,178.18,73.47z"/>
<path class="st0" d="M305.69,366.23c-1.18,0-2.34-0.6-3-1.69c-1-1.65-0.48-3.8,1.18-4.81l15.3-9.28c1.65-1,3.8-0.48,4.81,1.18
	c1,1.65,0.48,3.8-1.18,4.81l-15.3,9.28C306.94,366.06,306.31,366.23,305.69,366.23z"/>
<path class="st4" d="M365.84,296.24c-0.61,0-1.22-0.16-1.79-0.49c-1.66-0.99-2.21-3.14-1.22-4.8l7.28-12.24
	c0.99-1.66,3.13-2.21,4.8-1.22c1.66,0.99,2.21,3.14,1.22,4.8l-7.28,12.24C368.2,295.63,367.03,296.24,365.84,296.24z"/>
<path class="st4" d="M56.88,234.61c-0.9,0-1.79-0.34-2.47-1.03c-1.37-1.37-1.37-3.58,0-4.95l10.07-10.07c1.37-1.37,3.58-1.37,4.95,0
	c1.37,1.37,1.37,3.58,0,4.95l-10.07,10.07C58.67,234.26,57.78,234.61,56.88,234.61z"/>
<path class="st4" d="M338.11,86.98c-0.9,0-1.79-0.34-2.47-1.03l-10.07-10.07c-1.37-1.37-1.37-3.58,0-4.95
	c1.37-1.37,3.58-1.37,4.95,0l10.07,10.07c1.37,1.37,1.37,3.58,0,4.95C339.9,86.64,339.01,86.98,338.11,86.98z"/>
<path class="st3" d="M213.93,366.26c-1.4,0-2.73-0.85-3.26-2.24l-5.14-13.28c-0.7-1.8,0.2-3.83,2-4.53c1.81-0.7,3.83,0.2,4.53,2
	l5.14,13.28c0.7,1.8-0.2,3.83-2,4.53C214.77,366.18,214.35,366.26,213.93,366.26z"/>
<path class="st3" d="M95.48,147.96c-0.81,0-1.62-0.28-2.28-0.85l-10.79-9.29c-1.46-1.26-1.63-3.47-0.37-4.94
	c1.26-1.46,3.47-1.63,4.94-0.37l10.79,9.29c1.46,1.26,1.63,3.47,0.37,4.94C97.45,147.55,96.47,147.96,95.48,147.96z"/>
<path class="st3" d="M349.74,215.69c-1.53,0-2.93-1.01-3.37-2.55l-3.86-13.71c-0.52-1.86,0.56-3.79,2.42-4.32
	c1.86-0.52,3.79,0.56,4.32,2.42l3.86,13.71c0.52,1.86-0.56,3.79-2.42,4.32C350.38,215.65,350.06,215.69,349.74,215.69z"/>
<path class="st4" d="M-566.51,143.4c0.04,0.28,0.1,0.57,0.2,0.85C-566.42,143.97-566.48,143.69-566.51,143.4z"/>
<path class="st4" d="M-566.31,144.25c0.15,0.42,0.36,0.84,0.65,1.25h-0.01c-0.01-0.01-0.02-0.02-0.02-0.03
	c-0.09-0.13-0.17-0.26-0.24-0.39c-0.08-0.13-0.14-0.26-0.21-0.39c-0.01-0.02-0.02-0.03-0.02-0.05
	C-566.22,144.51-566.27,144.38-566.31,144.25z"/>
<path class="st4" d="M-565,146.32l0.02,0.04c-0.01-0.01-0.02-0.02-0.02-0.02c-0.14-0.14-0.26-0.29-0.36-0.43
	c-0.1-0.12-0.19-0.25-0.28-0.37c-0.02-0.01-0.03-0.02-0.02-0.04C-565.47,145.77-565.25,146.05-565,146.32z"/>
<path class="st4" d="M-384.35,146.3c0.25-0.27,0.47-0.54,0.66-0.82c-0.19,0.29-0.41,0.57-0.68,0.86L-384.35,146.3z"/>
<g>
	<path class="st0" d="M182.99,246.62c31.81,31.81,62.86,53.7,74.49,53.23l-46.59,17.59l-12.06,4.55l-29.08,10.97l-33.35,12.59
		l-0.01,0l-6.34,2.4l-2.62,0.98l-15.46,5.84l-2.41,0.91l-32.73,12.35l-9.99,3.77c-4.76,1.8-9.43-1.84-9.49-6.41
		c-0.01-0.85,0.13-1.73,0.47-2.62l9.21-24.38l-0.01-0.01l7.05-18.67l0.67-1.78l5.94-15.75l0.81-2.14l0.18-0.47l2.23-5.93l0-0.01
		l12.75-33.76l-0.01-0.01l10.97-29.08l4.55-12.05l-0.01-0.01l17.59-46.6l0.01-0.02c0.01-0.18,0.02-0.36,0.04-0.54
		c0.01-0.16,0.04-0.31,0.06-0.46c0-0.01,0.01-0.04,0.01-0.05c0-0.01,0-0.03,0.01-0.04c0.03-0.16,0.06-0.3,0.11-0.45
		c0.04-0.15,0.08-0.28,0.13-0.42c0.01-0.02,0.01-0.04,0.02-0.05c0.05-0.13,0.11-0.26,0.17-0.38c-0.19,0.4-0.34,0.85-0.42,1.34
		c-0.06,0.33-0.1,0.68-0.11,1.05l-0.01,0.04c-0.18,4.89,3.57,13.19,10.34,23.53C149.44,209.99,164.55,228.17,182.99,246.62z"/>
	<path class="st1" d="M76.83,368.03l-9.99,3.77c-4.76,1.8-9.43-1.84-9.49-6.41c-0.01-0.86,0.14-1.73,0.47-2.61l9.2-24.39l7.04-18.68
		l0.67-1.78l6.75-17.9l0.18-0.47l-0.01-0.01l2.24-5.92l-0.01-0.01l0.01-0.01l12.74-33.77l15.53-41.13l-0.01-0.01l17.59-46.58
		c-0.18,4.89,3.57,13.19,10.34,23.53l-15.39,40.78l-14.91,39.52l-8.07,21.38l-0.01,0.01l-6.53,17.29l-2.21,5.88l-0.64,1.69
		l-11.48,30.44l-4.01,10.63C76.21,364.96,76.28,366.6,76.83,368.03z"/>
	<path class="st4" d="M104.91,324.68c-8.55-8.55-16.38-17.04-23.25-25.12l-0.99,2.62l-5.95,15.75l-0.67,1.77l-7.04,18.68
		c3.77,4.07,7.74,8.19,11.87,12.32c4.14,4.14,8.26,8.1,12.33,11.88l18.33-6.92l2.41-0.91l15.46-5.83l2.62-0.98
		C121.96,341.07,113.46,333.23,104.91,324.68z"/>
	<path class="st4" d="M156.97,272.64c-19.75-19.75-35.67-39.21-44.8-53.91l-4.55,12.06l-10.97,29.08
		c8.99,11.83,20.74,25.25,34.29,38.81c13.56,13.56,26.98,25.31,38.81,34.3l29.08-10.97l12.06-4.55
		C196.18,308.32,176.72,292.39,156.97,272.64z"/>
	<path class="st1" d="M80.85,352.66c-0.66-0.64-1.31-1.29-1.96-1.94c-4.14-4.14-8.1-8.26-11.87-12.32l7.04-18.68l0.67-1.77
		l5.95-15.75l0.99-2.62c4.17,4.91,8.7,9.96,13.52,15.09l-2.21,5.88l-0.64,1.69L80.85,352.66z"/>
	<path class="st1" d="M109.78,275.98c-4.84-5.59-9.25-11.02-13.14-16.12l10.97-29.08l4.55-12.06c3.32,5.35,7.54,11.33,12.53,17.73
		L109.78,275.98z"/>
</g>
</svg>
