<?xml version="1.0" encoding="iso-8859-1"?>
<svg version="1.1" xmlns="http://www.w3.org/2000/svg" x="0px" y="0px" viewBox="0 0 135.052 135.052">
	<linearGradient id="vipfill" x1="0.5" y1="1" x2="0.5" y2="0" spreadMethod="pad" gradientUnits="objectBoundingBox" gradientTransform="translate(0 0)">

		<stop offset="0%" stop-color="#f6e27a" />
		<stop offset="20%" stop-color="#f6f2c0" />
		<stop offset="55%" stop-color="#f6e27a" />
		<stop offset="98%" stop-color="#cb9b51" />
		<stop offset="100%" stop-color="#cb9b51" />
	</linearGradient>
	<linearGradient id="leagueicongrad" gradientTransform="rotate(90)">
		<stop offset="0%" stop-color="#9b2c49" />
		<stop offset="10%" stop-color="#fc9db6" />
		<stop offset="99%" stop-color="#b73955" />

		<stop offset="100%" stop-color="#ffffff" />
	</linearGradient>
	<g fill="url(#vipfill)">
		<polygon points="102.502,57.66 100.656,58.096 100.656,120.906 91.804,124.682 91.804,60.174 67.493,65.895 
		67.493,135.052 122.145,111.74 122.145,53.033 102.502,57.656 	" />
		<polygon fill="url(#leagueicongrad)" points="93.65,59.739 91.804,60.174 91.804,124.682 100.656,120.906 100.656,58.096 93.65,59.751 	
		" />
		<polygon points="32.562,57.317 32.562,57.317 12.583,52.411 12.583,111.74 34.407,121.005 34.407,57.77 	" />
		<polygon points="43.259,59.944 43.259,124.764 67.493,135.052 67.493,65.895 	" />
		<polygon fill="url(#leagueicongrad)" points="41.414,59.491 41.414,59.491 34.407,57.77 34.407,121.005 34.407,121.006 43.259,124.764 
		43.259,124.764 43.259,59.944 	" />
		<polygon points="67.493,42.196 41.415,37.696 41.414,37.696 41.414,59.491 43.259,59.944 67.493,65.895 
		67.493,52.428 	" />
		<polygon points="32.562,36.168 8.957,32.095 8.957,51.52 12.583,52.411 32.562,57.317 	" />
		<polygon points="126.094,32.095 102.482,36.165 102.502,36.168 102.502,57.656 122.145,53.033 
		126.094,52.103 	" />
		<polygon points="93.65,37.696 93.623,37.692 67.493,42.196 67.493,52.428 67.493,65.895 91.804,60.174 
		93.65,59.739 	" />
		<path d="M54.196,28.792l10.243,1.563c0.173-0.019,0.346-0.03,0.52-0.054c0.536-1.2,0.982-2.578,1.331-4.06
		c-0.089-0.383-0.17-0.768-0.246-1.157L51.102,26.92C52.063,27.654,53.098,28.28,54.196,28.792z" />
		<polygon points="67.493,42.196 93.623,37.692 69.045,33.769 41.415,37.696 	" />
		<path d="M72.49,26.245c0.347,1.449,0.786,2.797,1.313,3.975c0.255,0.034,0.507,0.054,0.761,0.079
		l9.399-1.313c1.083-0.455,2.109-1.018,3.069-1.682l-14.385-1.765C72.598,25.776,72.544,26.01,72.49,26.245z" />
		<path d="M91.804,27.89l9.993,1.226l-23.558,3.348l24.243,3.702l23.612-4.07l-35.119-4.308
		c-0.145,0.095-0.291,0.188-0.438,0.279L91.804,27.89z" />
		<path d="M32.562,36.168l27.464-3.838l-23.039-3.677l9.038-1.109l1.643,0.251
		c-0.189-0.125-0.373-0.255-0.557-0.385L8.957,32.095L32.562,36.168L32.562,36.168z" />
		<polygon fill="url(#leagueicongrad)" points="41.414,37.696 32.562,36.168 32.562,36.168 32.562,57.317 32.562,57.317 34.407,57.77 
		41.414,59.491 41.414,59.491 	" />
		<polygon fill="url(#leagueicongrad)" points="93.65,59.739 93.65,59.751 100.656,58.096 102.502,57.66 102.502,57.656 102.502,36.168 
		93.65,37.696 	" />
		<polygon fill="url(#leagueicongrad)" points="41.414,37.696 41.415,37.696 69.045,33.769 60.026,32.33 32.562,36.168 	" />
		<path fill="url(#leagueicongrad)" d="M91.804,27.89l-1.267,0.177c-3.724,2.317-8.302,3.748-12.826,4.316l0.528,0.08l23.558-3.348
		L91.804,27.89z" />
		<path style="fill:#C14660;" d="M83.963,28.985l-9.399,1.313C77.903,30.632,81.121,30.18,83.963,28.985z" />
		<path fill="url(#leagueicongrad)" d="M46.025,27.544l-9.038,1.109l23.039,3.677l9.019,1.439l24.578,3.923l0.026,0.004l8.852-1.528
		l-0.02-0.003l-24.243-3.702l-0.528-0.08c4.524-0.568,9.102-1.999,12.826-4.316c0.147-0.092,0.294-0.185,0.438-0.279
		c1.491-0.974,2.837-2.09,3.968-3.361c5.465-6.146,7.918-17.11-0.473-21.946C87.295-1.656,75.653-0.629,69.94,5.643
		c-0.211,0.232-0.397,0.482-0.592,0.725c-0.175-0.215-0.338-0.438-0.525-0.643C63.11-0.547,51.467-1.574,44.291,2.561
		c-8.39,4.836-5.938,15.8-0.473,21.946c0.956,1.076,2.071,2.039,3.293,2.902c0.184,0.13,0.368,0.26,0.557,0.385L46.025,27.544z
		 M47.316,22.861c-0.537-0.816-1.016-1.692-1.428-2.631c-2.479-5.654-2.038-12.327,3.731-15.692
		c2.927-1.708,5.431-2.441,7.562-2.449l0.001-0.009c4.393-0.093,8.783,1.364,11.781,4.759c-1.106,1.508-1.911,3.223-2.478,5.047
		c-1.283,4.129-1.286,8.843-0.44,13.198c0.075,0.39,0.157,0.774,0.246,1.157c0.327,1.41,0.733,2.775,1.219,4.052
		c-1.834-6.572-2.237-12.928-0.696-18.063C69.018,4.885,75.3,1.865,81.58,1.998l0,0.01c2.131,0.007,4.635,0.741,7.562,2.448
		c5.769,3.365,6.21,10.038,3.731,15.692c-0.412,0.938-0.891,1.814-1.428,2.631c-2.577,5.551-9.01,8.044-14.779,9.723
		c-2.291,0.221-4.537,0.21-6.638-0.014c-0.224,0.055-0.505,0.064-0.822,0.039c-2.234,0.274-4.649,0.295-7.111,0.057
		C56.326,30.905,49.893,28.413,47.316,22.861z" />
		<path fill="url(#leagueicongrad)" d="M64.439,30.355l-10.243-1.563C57.251,30.216,60.773,30.763,64.439,30.355z" />
		<path fill="url(#leagueicongrad)" d="M72.257,11.903c-0.066,0.303-0.129,0.606-0.184,0.915c1.022,3.76,1.057,8.129,0.266,12.75
		c0.049,0.228,0.099,0.454,0.152,0.677c0.054-0.235,0.108-0.469,0.157-0.706C73.571,21.059,73.596,16.165,72.257,11.903z" />
		<path fill="url(#leagueicongrad)" d="M72.072,12.818c-0.742,4.12-0.586,8.775,0.266,12.75C73.13,20.947,73.095,16.578,72.072,12.818z" />
		<path fill="url(#leagueicongrad)" d="M66.485,11.887c0.567-1.824,1.372-3.539,2.478-5.047c-2.998-3.395-7.388-4.852-11.781-4.759
		L57.181,2.09C62.337,2.072,65.264,6.383,66.485,11.887z" />
		<path fill="url(#leagueicongrad)" d="M62.095,32.584c2.462,0.238,4.878,0.218,7.111-0.057c0.316,0.025,0.598,0.016,0.822-0.039
		c-0.157-0.017-0.318-0.024-0.473-0.044c-0.645,0.053-1.15-0.038-1.303-0.368c-0.265-0.57-0.509-1.17-0.742-1.782
		c-0.486-1.276-0.892-2.642-1.219-4.052c-0.35,1.481-0.795,2.859-1.331,4.06c-0.174,0.023-0.347,0.035-0.52,0.054
		c-3.667,0.407-7.189-0.14-10.243-1.563c-1.098-0.512-2.133-1.138-3.094-1.872c-1.451-1.109-2.735-2.461-3.786-4.059
		C49.893,28.413,56.326,30.905,62.095,32.584z" />
		<path fill="url(#leagueicongrad)" d="M68.252,32.076c0.153,0.33,0.658,0.421,1.303,0.368c0.155,0.02,0.316,0.027,0.473,0.044
		c2.102,0.224,4.347,0.234,6.638,0.014c5.769-1.679,12.202-4.172,14.779-9.723c-1.201,1.826-2.7,3.338-4.414,4.524
		c-0.96,0.664-1.987,1.227-3.069,1.682c-2.842,1.194-6.06,1.646-9.399,1.313c-0.253-0.025-0.506-0.045-0.761-0.079
		c-0.526-1.178-0.966-2.525-1.313-3.975c-0.053-0.223-0.103-0.449-0.152-0.677c-0.852-3.975-1.007-8.63-0.266-12.75
		c0.056-0.309,0.118-0.612,0.184-0.915c1.207-5.551,4.138-9.913,9.324-9.896l0-0.01C75.3,1.865,69.018,4.885,66.814,12.231
		c-1.54,5.135-1.138,11.49,0.696,18.063C67.743,30.906,67.987,31.506,68.252,32.076z" />
	</g>
</svg>