<?xml version="1.0" encoding="iso-8859-1"?>
<!-- Generator: Adobe Illustrator 19.0.0, SVG Export Plug-In . SVG Version: 6.00 Build 0)  -->
<svg version="1.1" id="Layer_1" xmlns="http://www.w3.org/2000/svg" xmlns:xlink="http://www.w3.org/1999/xlink" x="0px" y="0px"
	 viewBox="0 0 511.998 511.998" style="enable-background:new 0 0 511.998 511.998;" xml:space="preserve">
<path style="fill:#F95428;" d="M494.596,256c0-22.502,22.054-47.597,16.507-68.349c-5.739-21.472-37.552-32.157-48.429-50.957
	c-11.033-19.071-4.494-51.922-19.971-67.399c-15.477-15.477-48.328-8.938-67.399-19.971c-18.8-10.877-29.483-42.689-50.955-48.429
	C303.597-4.652,278.501,17.402,256,17.402S208.403-4.652,187.651,0.895c-21.472,5.739-32.157,37.552-50.957,48.429
	c-19.071,11.033-51.922,4.494-67.399,19.971s-8.938,48.328-19.971,67.399c-10.877,18.8-42.689,29.483-48.429,50.955
	c-5.547,20.752,16.507,45.848,16.507,68.349s-22.054,47.597-16.507,68.349c5.739,21.472,37.552,32.157,48.429,50.957
	c11.033,19.071,4.494,51.922,19.971,67.399c15.477,15.477,48.328,8.938,67.399,19.971c18.8,10.877,29.483,42.689,50.955,48.429
	c20.752,5.546,45.848-16.507,68.349-16.507s47.597,22.054,68.349,16.507c21.472-5.739,32.157-37.552,50.957-48.429
	c19.071-11.033,51.922-4.494,67.399-19.971c15.477-15.477,8.938-48.328,19.971-67.399c10.877-18.8,42.689-29.483,48.429-50.955
	C516.65,303.597,494.596,278.501,494.596,256z"/>
<circle style="fill:#666666;" cx="256.002" cy="256.004" r="186.699"/>
<path style="fill:#4D4D4D;" d="M288.438,410.265c-103.114,0-186.705-83.591-186.705-186.705c0-43.289,14.738-83.135,39.463-114.803
	C97.433,142.927,69.294,196.175,69.294,256c0,103.114,83.591,186.705,186.705,186.705c59.825,0,113.072-28.141,147.242-71.902
	C371.572,395.528,331.727,410.265,288.438,410.265z"/>
<g>
	<path style="fill:#FFFFFF;" d="M198.138,250.874c-29.077,0-52.735-23.657-52.735-52.735s23.658-52.735,52.735-52.735
		s52.734,23.657,52.734,52.735S227.216,250.874,198.138,250.874z M198.138,164.486c-18.557,0-33.653,15.096-33.653,33.653
		s15.096,33.653,33.653,33.653c18.555,0,33.652-15.096,33.652-33.653S216.693,164.486,198.138,164.486z"/>
	<path style="fill:#FFFFFF;" d="M313.858,366.594c-29.077,0-52.734-23.657-52.734-52.735c0-29.078,23.657-52.735,52.734-52.735
		s52.735,23.657,52.735,52.735C366.593,342.938,342.936,366.594,313.858,366.594z M313.858,280.207
		c-18.555,0-33.652,15.096-33.652,33.653s15.096,33.653,33.652,33.653c18.557,0,33.653-15.096,33.653-33.653
		S332.414,280.207,313.858,280.207z"/>
	<path style="fill:#FFFFFF;" d="M201.024,320.514c-2.442,0-4.884-0.931-6.747-2.795c-3.726-3.726-3.726-9.766,0-13.492
		L304.225,194.28c3.729-3.726,9.769-3.725,13.494,0c3.726,3.726,3.726,9.766,0,13.492L207.771,317.719
		C205.908,319.582,203.466,320.514,201.024,320.514z"/>
</g>
<path style="fill:#E54728;" d="M255.998,455.426c-109.963,0-199.428-89.462-199.428-199.426S146.034,56.572,255.998,56.572
	s199.426,89.463,199.426,199.426S365.962,455.426,255.998,455.426z M255.998,82.015c-95.936,0-173.985,78.049-173.985,173.984
	s78.049,173.984,173.985,173.984c95.934,0,173.984-78.049,173.984-173.984S351.933,82.015,255.998,82.015z"/>
<g>
</g>
<g>
</g>
<g>
</g>
<g>
</g>
<g>
</g>
<g>
</g>
<g>
</g>
<g>
</g>
<g>
</g>
<g>
</g>
<g>
</g>
<g>
</g>
<g>
</g>
<g>
</g>
<g>
</g>
</svg>
